<?xml version="1.0" standalone="no"?>
<!DOCTYPE svg PUBLIC "-//W3C//DTD SVG 20010904//EN"
 "http://www.w3.org/TR/2001/REC-SVG-20010904/DTD/svg10.dtd">
<svg version="1.0" xmlns="http://www.w3.org/2000/svg"
 width="1181.000000pt" height="492.000000pt" viewBox="0 0 1181.000000 492.000000"
 preserveAspectRatio="xMidYMid meet">

<g transform="translate(0.000000,492.000000) scale(0.100000,-0.100000)"
fill="#000000" stroke="none">
<path d="M5095 4740 c-3 -6 1 -7 9 -4 18 7 21 14 7 14 -6 0 -13 -4 -16 -10z"/>
<path d="M3846 2473 c-6 -14 -5 -15 5 -6 7 7 10 15 7 18 -3 3 -9 -2 -12 -12z"/>
<path d="M885 1410 l-259 -5 -308 -470 c-169 -259 -307 -473 -308 -477 0 -5
2653 -8 5896 -8 3801 0 5894 3 5892 10 -1 5 -140 220 -308 478 l-305 468 -395
7 c-451 8 -9509 5 -9905 -3z m8845 -199 c0 -4 -20 -24 -45 -45 -31 -25 -53
-36 -70 -34 l-24 3 34 46 c31 41 37 45 70 41 19 -2 35 -7 35 -11z m-6868 -133
c53 -29 56 -41 20 -67 l-29 -20 -41 21 c-74 36 -148 1 -173 -82 -22 -74 44
-160 123 -160 12 0 38 9 56 20 l33 20 29 -22 c17 -12 29 -27 27 -33 -5 -17
-109 -65 -141 -65 -54 0 -106 20 -147 57 -96 87 -102 198 -16 290 72 76 169
91 259 41z m4564 17 c43 -13 104 -51 93 -58 -2 -1 -16 -12 -30 -25 l-27 -23
-41 20 c-22 12 -51 21 -63 21 -60 0 -128 -69 -128 -130 0 -40 34 -93 71 -112
65 -34 133 -15 133 37 0 29 -2 30 -48 33 -47 3 -47 4 -44 35 l3 32 85 0 85 0
3 -85 3 -85 -42 -27 c-74 -48 -164 -48 -237 -1 -45 30 -89 92 -98 140 -21 114
84 238 207 242 14 1 48 -6 75 -14z m-5436 -35 l0 -40 -112 0 -113 0 0 -37 0
-38 100 -5 100 -5 3 -37 3 -37 -102 -3 -102 -3 2 -77 2 -78 -45 0 -46 0 0 200
0 200 155 0 155 0 0 -40z m330 31 c0 -5 35 -95 79 -200 l78 -191 -49 0 c-46 0
-51 2 -61 30 l-11 30 -92 0 -92 0 -11 -30 c-9 -28 -13 -30 -59 -30 l-49 0 81
200 81 200 53 0 c28 0 52 -4 52 -9z m770 -127 l0 -136 29 -29 c32 -31 64 -36
106 -17 45 20 55 54 55 193 l0 125 46 0 46 0 -4 -137 c-4 -159 -17 -199 -79
-240 -95 -63 -225 -29 -270 71 -15 33 -19 66 -19 174 l0 132 45 0 45 0 0 -136z
m470 -24 l0 -160 100 0 100 0 0 -40 0 -40 -140 0 -140 0 0 200 0 200 40 0 40
0 0 -160z m600 120 l0 -40 -65 0 -65 0 0 -160 0 -160 -40 0 -40 0 0 160 0 160
-65 0 -65 0 0 40 0 40 170 0 170 0 0 -40z m353 -122 c36 -90 73 -180 81 -200
l16 -38 -49 0 c-45 0 -50 2 -61 30 l-12 30 -90 0 -90 0 -11 -30 c-10 -28 -15
-30 -59 -30 -26 0 -48 2 -48 4 0 2 32 82 71 178 39 95 75 183 80 196 7 19 16
22 58 22 l49 0 65 -162z m462 127 c67 -42 98 -100 93 -177 -5 -76 -40 -127
-109 -162 -47 -23 -65 -26 -156 -26 l-103 0 0 201 0 201 113 -3 c106 -4 117
-6 162 -34z m680 0 c67 -42 98 -100 93 -177 -5 -76 -40 -127 -109 -162 -47
-23 -65 -26 -156 -26 l-103 0 0 201 0 201 113 -3 c106 -4 117 -6 162 -34z
m507 0 c2 -20 2 -38 -1 -40 -2 -3 -53 -5 -113 -5 l-108 0 0 -40 0 -40 100 0
100 0 0 -40 0 -40 -100 0 -100 0 0 -40 0 -40 108 0 c60 0 111 -2 113 -5 3 -2
3 -20 1 -40 l-4 -35 -154 0 -154 0 0 200 0 200 154 0 154 0 4 -35z m388 -165
l0 -200 -40 0 -40 0 0 200 0 200 40 0 40 0 0 -200z m303 74 l92 -125 3 125 3
126 44 0 45 0 0 -200 0 -200 -45 0 -45 0 -93 126 -92 126 -3 -126 -3 -126 -44
0 -45 0 0 200 0 200 45 0 46 0 92 -126z m1087 86 l0 -40 -110 0 -110 0 0 -40
0 -40 101 0 100 0 -3 -37 -3 -38 -97 -3 -98 -3 0 -39 0 -40 110 0 110 0 0 -40
0 -40 -155 0 -155 0 0 200 0 200 155 0 155 0 0 -40z m283 -84 l92 -125 3 125
3 124 44 0 45 0 0 -200 0 -200 -45 0 -44 0 -93 126 -93 126 -3 -126 -3 -126
-44 0 -45 0 0 200 0 200 45 0 45 0 93 -124z m397 -76 l0 -200 -45 0 -45 0 0
200 0 200 45 0 45 0 0 -200z m420 160 l0 -40 -110 0 -110 0 0 -40 0 -40 100 0
100 0 0 -40 0 -40 -100 0 -100 0 0 -40 0 -40 110 0 110 0 0 -40 0 -40 -155 0
-155 0 0 200 0 200 155 0 155 0 0 -40z m347 29 c99 -37 119 -160 37 -227 l-36
-30 39 -53 c60 -83 60 -79 5 -79 l-50 0 -43 65 c-39 57 -48 64 -76 65 l-33 0
0 -65 0 -65 -45 0 -45 0 0 200 0 200 109 0 c60 0 122 -5 138 -11z m273 -189
l0 -200 -40 0 -40 0 0 200 0 200 40 0 40 0 0 -200z m431 0 c43 -107 79 -196
79 -197 0 -2 -22 -3 -49 -3 -45 0 -50 2 -60 30 l-10 30 -91 0 -91 0 -10 -30
c-10 -28 -14 -30 -61 -30 -36 0 -49 3 -45 13 5 12 143 348 154 375 4 9 21 12
55 10 l49 -3 80 -195z"/>
<path d="M2252 950 c-5 -14 -17 -42 -26 -64 -9 -21 -16 -41 -16 -45 0 -3 25
-6 55 -6 30 0 55 4 55 10 -1 6 -14 37 -29 70 -27 58 -29 59 -39 35z"/>
<path d="M4368 908 l-26 -63 52 -5 c28 -3 53 -4 55 -3 5 3 -43 133 -50 133 -3
0 -17 -28 -31 -62z"/>
<path d="M4780 900 l0 -120 55 0 c92 0 145 44 145 120 0 76 -53 120 -145 120
l-55 0 0 -120z"/>
<path d="M5460 900 l0 -120 55 0 c92 0 145 44 145 120 0 76 -53 120 -145 120
l-55 0 0 -120z"/>
<path d="M9230 965 l0 -55 60 0 c47 0 64 4 80 20 46 46 8 90 -80 90 l-60 0 0
-55z"/>
<path d="M9929 905 l-27 -65 58 0 58 0 -27 65 c-14 36 -28 65 -31 65 -3 0 -17
-29 -31 -65z"/>
<path d="M4957 295 c-17 -24 -17 -25 1 -25 10 0 27 8 36 19 15 17 15 19 1 25
-21 8 -17 10 -38 -19z"/>
<path d="M9736 295 c-20 -30 -4 -34 33 -9 18 13 20 18 10 25 -21 13 -25 11
-43 -16z"/>
<path d="M2909 239 c-15 -6 -32 -23 -39 -39 -18 -44 5 -74 75 -94 42 -13 55
-21 55 -36 0 -29 -44 -37 -88 -16 -28 14 -37 15 -43 4 -14 -21 -5 -32 37 -46
71 -24 144 8 144 62 0 30 -40 63 -86 72 -43 8 -61 28 -44 49 16 19 37 19 72 1
26 -14 29 -13 38 5 10 17 6 22 -24 34 -40 17 -60 18 -97 4z"/>
<path d="M4904 236 c-104 -47 -97 -190 11 -226 130 -43 224 132 114 211 -38
27 -86 33 -125 15z m104 -59 c60 -56 -14 -160 -87 -122 -59 30 -56 111 4 143
24 14 53 6 83 -21z"/>
<path d="M5463 236 c-39 -18 -73 -70 -73 -111 0 -70 77 -133 146 -120 106 19
139 153 54 217 -35 25 -88 31 -127 14z m86 -41 c31 -15 41 -33 41 -70 0 -37
-10 -55 -41 -70 -31 -17 -53 -12 -86 18 -48 43 -17 117 55 136 2 1 16 -6 31
-14z"/>
<path d="M7435 238 c-73 -40 -50 -117 41 -134 43 -8 61 -28 44 -49 -16 -19
-47 -19 -84 0 -22 12 -32 12 -42 4 -20 -17 -1 -36 49 -50 58 -16 111 1 127 41
18 45 -6 75 -75 95 -42 13 -55 21 -55 36 0 26 42 35 78 16 27 -13 30 -12 41 5
10 16 7 21 -23 33 -42 18 -73 19 -101 3z"/>
<path d="M8445 243 c-63 -17 -104 -90 -85 -149 14 -40 58 -80 100 -89 64 -14
142 51 142 119 0 77 -82 139 -157 119z m93 -69 c28 -32 28 -66 -1 -100 -33
-37 -81 -37 -114 0 -27 32 -29 62 -7 94 33 47 82 49 122 6z"/>
<path d="M10067 242 c-18 -2 -35 -15 -50 -38 -12 -18 -25 -34 -28 -34 -4 0
-19 16 -33 35 -18 23 -35 35 -52 35 -13 0 -24 -3 -24 -6 0 -3 18 -28 39 -57
l39 -51 -40 -55 c-38 -54 -39 -56 -17 -59 16 -3 31 7 54 34 l32 37 27 -35 c17
-23 37 -37 56 -40 17 -3 30 -3 30 -1 0 2 -18 28 -40 57 -22 29 -40 57 -40 62
0 5 18 33 41 63 22 29 39 54 37 55 -2 1 -16 0 -31 -2z"/>
<path d="M10311 232 c-101 -51 -99 -165 3 -216 32 -16 44 -17 74 -7 21 6 44
15 52 21 13 8 12 11 -4 23 -16 12 -23 12 -46 0 -47 -23 -110 18 -110 72 0 54
63 95 110 72 23 -12 30 -12 46 0 19 14 19 14 -1 26 -50 30 -80 32 -124 9z"/>
<path d="M10554 236 c-104 -47 -97 -190 12 -226 94 -31 184 55 155 151 -20 67
-102 104 -167 75z m104 -62 c26 -30 28 -61 6 -92 -24 -35 -59 -45 -93 -27 -58
29 -59 109 -2 140 32 17 59 11 89 -21z"/>
<path d="M1490 147 c6 -104 13 -120 66 -137 44 -15 85 -5 115 26 21 22 24 37
27 115 l4 89 -26 0 c-26 0 -26 -1 -26 -78 0 -83 -9 -105 -47 -117 -17 -4 -29
1 -48 19 -22 22 -25 33 -25 101 0 71 -1 75 -22 75 -23 0 -23 -2 -18 -93z"/>
<path d="M1760 125 c0 -108 1 -115 20 -115 17 0 19 8 22 77 l3 77 58 -77 c44
-60 63 -77 82 -77 l25 0 0 115 0 115 -26 0 -26 0 4 -75 c2 -41 1 -75 -2 -75
-3 0 -29 34 -58 75 -41 58 -58 75 -78 75 l-24 0 0 -115z"/>
<path d="M2030 125 l0 -115 25 0 25 0 0 115 0 115 -25 0 -25 0 0 -115z"/>
<path d="M2125 221 c3 -11 23 -62 44 -113 35 -86 40 -93 67 -96 30 -3 31 -1
76 110 37 90 43 114 32 116 -29 7 -41 -7 -70 -82 -16 -42 -32 -76 -35 -76 -3
0 -20 36 -38 80 -29 69 -37 80 -58 80 -20 0 -23 -4 -18 -19z"/>
<path d="M2400 125 l0 -115 90 0 c83 0 90 1 90 20 0 18 -7 20 -64 20 -60 0
-64 1 -68 25 -3 13 -3 27 0 30 3 3 32 5 64 5 51 0 58 2 58 20 0 18 -7 20 -60
20 -57 0 -60 1 -60 25 0 24 2 25 65 25 58 0 65 2 65 20 0 19 -7 20 -90 20
l-90 0 0 -115z"/>
<path d="M2630 125 c0 -107 1 -115 19 -115 16 0 20 8 23 37 4 54 30 55 65 4
21 -30 35 -40 56 -41 l28 0 -25 37 -26 37 25 26 c32 34 33 79 2 108 -19 18
-35 22 -95 22 l-72 0 0 -115z m128 66 c8 -4 12 -19 10 -32 -3 -21 -9 -24 -50
-27 l-48 -3 0 35 c0 35 1 36 38 36 20 0 43 -4 50 -9z"/>
<path d="M3090 125 l0 -115 25 0 25 0 0 115 0 115 -25 0 -25 0 0 -115z"/>
<path d="M3200 125 l0 -115 65 0 c77 0 118 18 140 60 30 57 10 127 -45 155
-17 9 -56 15 -95 15 l-65 0 0 -115z m144 54 c57 -45 18 -129 -60 -129 l-34 0
0 75 0 75 34 0 c19 0 45 -9 60 -21z"/>
<path d="M3513 203 c-8 -21 -28 -69 -44 -107 -16 -37 -29 -72 -29 -77 0 -16
42 -10 55 7 8 12 26 17 58 16 68 -1 67 -1 67 -17 0 -10 10 -15 29 -15 l29 0
-46 115 c-43 109 -47 115 -74 115 -24 0 -32 -6 -45 -37z m63 -68 c20 -49 18
-55 -21 -55 -19 0 -35 4 -35 10 0 11 32 80 37 80 2 0 11 -16 19 -35z"/>
<path d="M3720 125 l0 -115 65 0 c77 0 118 18 140 60 30 57 10 127 -45 155
-17 9 -56 15 -95 15 l-65 0 0 -115z m147 53 c52 -48 12 -128 -63 -128 l-34 0
0 75 0 75 37 0 c24 0 45 -8 60 -22z"/>
<path d="M4118 125 l-47 -115 30 0 c19 0 29 5 29 15 0 16 -1 16 67 17 32 1 50
-4 58 -16 7 -9 24 -16 38 -16 l25 0 -47 113 c-44 105 -49 112 -76 115 -29 3
-31 0 -77 -113z m112 -32 c0 -8 -13 -13 -35 -13 -40 0 -41 3 -19 56 l16 39 19
-35 c10 -19 18 -41 19 -47z"/>
<path d="M4357 155 c2 -99 12 -121 60 -142 46 -19 93 -10 124 23 21 22 24 37
27 115 l4 89 -26 0 c-26 0 -26 -1 -26 -77 0 -43 -4 -83 -8 -89 -15 -23 -51
-35 -72 -24 -31 17 -40 43 -40 119 0 67 -1 71 -22 71 -22 0 -23 -3 -21 -85z"/>
<path d="M4610 220 c0 -17 7 -20 40 -20 l40 0 0 -95 c0 -88 1 -95 20 -95 19 0
20 7 20 95 l0 95 40 0 c33 0 40 3 40 20 0 19 -7 20 -100 20 -93 0 -100 -1
-100 -20z"/>
<path d="M5130 125 c0 -113 0 -115 23 -115 21 0 22 3 19 75 -2 41 0 75 5 74 4
0 32 -34 61 -75 41 -57 59 -74 78 -74 l24 0 0 115 c0 108 -1 115 -20 115 -18
0 -20 -7 -20 -75 0 -41 -3 -75 -7 -74 -5 0 -32 34 -61 75 -41 57 -59 74 -78
74 l-24 0 0 -115z"/>
<path d="M5690 125 l0 -115 26 0 c25 0 26 1 22 70 -2 39 -1 70 2 70 3 0 20
-27 38 -60 18 -33 35 -60 37 -60 3 0 19 28 37 63 l33 62 3 -73 c3 -69 4 -72
27 -72 l25 0 0 116 0 115 -27 -3 c-22 -2 -34 -14 -58 -60 -17 -31 -33 -60 -37
-63 -3 -3 -22 23 -42 59 -30 53 -42 66 -61 66 l-25 0 0 -115z"/>
<path d="M6027 128 c-43 -109 -44 -113 -24 -116 12 -2 27 4 34 13 17 24 112
25 125 1 5 -9 20 -16 34 -16 30 0 31 -5 -25 130 -36 87 -42 95 -69 98 -29 3
-30 1 -75 -110z m91 15 c5 -16 13 -36 17 -45 6 -15 2 -18 -27 -18 -19 0 -37 3
-40 6 -7 6 24 84 34 84 3 0 11 -12 16 -27z"/>
<path d="M6365 125 l0 -117 78 4 c74 3 81 5 108 36 23 25 29 42 29 77 0 35 -6
52 -29 77 -27 31 -34 33 -108 36 l-78 4 0 -117z m146 56 c17 -13 23 -29 23
-56 0 -48 -31 -75 -85 -75 l-39 0 0 75 0 75 39 0 c23 0 48 -8 62 -19z"/>
<path d="M6630 125 l0 -115 90 0 c83 0 90 1 90 20 0 18 -7 20 -65 20 l-65 0 0
30 0 30 60 0 c53 0 60 2 60 20 0 18 -7 20 -60 20 -57 0 -60 1 -60 25 0 24 2
25 65 25 58 0 65 2 65 20 0 19 -7 20 -90 20 l-90 0 0 -115z"/>
<path d="M6860 125 l0 -115 85 0 c78 0 85 2 85 20 0 18 -7 20 -60 20 l-60 0 0
95 c0 95 0 95 -25 95 l-25 0 0 -115z"/>
<path d="M7170 125 l0 -115 90 0 c83 0 90 1 90 20 0 18 -7 20 -64 20 -60 0
-64 1 -68 25 -3 13 -3 27 0 30 3 3 32 5 64 5 51 0 58 2 58 20 0 18 -7 20 -59
20 -50 0 -59 3 -64 19 -7 28 -1 31 70 31 56 0 63 2 63 20 0 19 -7 20 -90 20
l-90 0 0 -115z"/>
<path d="M7610 220 c0 -16 7 -20 35 -20 l35 0 0 -95 c0 -95 0 -95 25 -95 25 0
25 0 25 95 l0 95 40 0 c33 0 40 3 40 20 0 19 -7 20 -100 20 -93 0 -100 -1
-100 -20z"/>
<path d="M7858 128 c-45 -109 -46 -113 -25 -116 12 -2 26 4 34 13 17 24 111
25 128 1 7 -9 22 -16 34 -16 26 0 27 -2 -28 132 -35 86 -40 93 -67 96 -30 3
-31 1 -76 -110z m90 15 c5 -16 13 -36 17 -45 6 -15 1 -18 -29 -18 -41 0 -40
-1 -24 51 13 46 22 49 36 12z"/>
<path d="M8090 125 l0 -117 79 3 c67 4 83 8 105 28 36 34 49 85 32 125 -24 57
-50 71 -137 75 l-79 3 0 -117z m157 49 c49 -49 8 -124 -68 -124 l-39 0 0 75 0
75 40 0 c31 0 47 -7 67 -26z"/>
<path d="M8755 125 l0 -117 78 4 c74 3 81 5 108 36 23 25 29 42 29 77 0 35 -6
52 -29 77 -27 31 -34 33 -108 36 l-78 4 0 -117z m146 56 c17 -13 23 -29 23
-56 0 -48 -31 -75 -85 -75 l-39 0 0 75 0 75 39 0 c23 0 48 -8 62 -19z"/>
<path d="M9020 125 l0 -115 90 0 c83 0 90 1 90 20 0 18 -7 20 -65 20 l-65 0 0
30 0 30 60 0 c53 0 60 2 60 20 0 18 -7 20 -60 20 -57 0 -60 1 -60 25 0 24 2
25 65 25 58 0 65 2 65 20 0 19 -7 20 -90 20 l-90 0 0 -115z"/>
<path d="M9350 125 l0 -115 25 0 c23 0 24 3 27 73 l3 72 34 -63 c38 -71 44
-70 81 8 13 27 26 50 30 50 3 0 4 -31 2 -70 -4 -70 -4 -70 22 -70 l26 0 0 116
0 115 -26 -3 c-21 -2 -33 -16 -58 -65 -17 -34 -33 -63 -37 -63 -3 0 -21 29
-40 65 -29 56 -38 65 -61 65 l-28 0 0 -115z"/>
<path d="M9660 125 l0 -115 90 0 c83 0 90 1 90 20 0 18 -7 20 -65 20 l-65 0 0
30 0 30 60 0 c53 0 60 2 60 20 0 18 -7 20 -60 20 -57 0 -60 1 -60 25 0 24 2
25 65 25 58 0 65 2 65 20 0 19 -7 20 -90 20 l-90 0 0 -115z"/>
<path d="M10140 125 l0 -115 25 0 25 0 0 115 0 115 -25 0 -25 0 0 -115z"/>
</g>
</svg>
