<?xml version="1.0" standalone="no"?>
<!DOCTYPE svg PUBLIC "-//W3C//DTD SVG 20010904//EN"
 "http://www.w3.org/TR/2001/REC-SVG-20010904/DTD/svg10.dtd">
<svg version="1.0" xmlns="http://www.w3.org/2000/svg"
 width="300.000000pt" height="300.000000pt" viewBox="0 0 300.000000 300.000000"
 preserveAspectRatio="xMidYMid meet">

<g transform="translate(0.000000,300.000000) scale(0.100000,-0.100000)"
fill="#000000" stroke="none">
<path d="M1255 2335 c-44 -7 -120 -25 -168 -39 -142 -42 -187 -70 -187 -117 0
-23 -7 -32 -35 -43 -23 -10 -35 -22 -35 -34 0 -19 33 -58 78 -94 29 -23 28
-40 -5 -78 -20 -25 -24 -36 -16 -49 12 -20 39 -21 35 -2 -2 8 10 27 25 43 23
24 28 38 27 77 0 45 1 47 26 43 16 -2 33 3 43 13 16 15 19 29 22 95 1 22 7 26
85 42 116 24 418 35 530 19 79 -12 236 -45 269 -57 11 -3 12 -7 3 -16 -35 -35
8 -102 72 -114 29 -5 36 -10 30 -23 -21 -49 -17 -71 22 -107 22 -20 38 -39 37
-44 -1 -4 4 -11 12 -14 27 -10 28 33 1 69 -34 44 -33 60 4 82 37 21 60 84 41
107 -7 8 -26 18 -42 21 -25 6 -28 9 -18 27 33 62 -191 163 -436 198 -96 13
-323 11 -420 -5z m75 -45 l-8 -35 -1 31 c-1 17 2 34 6 37 11 12 12 3 3 -33z
m76 4 c1 -29 1 -29 -3 -1 -2 15 -9 25 -14 22 -5 -4 -9 -1 -9 5 0 26 25 1 26
-26z m36 1 c-2 -19 -6 -35 -8 -35 -2 0 -4 16 -4 35 0 19 4 35 8 35 4 0 6 -16
4 -35z m78 0 c0 -13 -4 -26 -8 -29 -5 -3 -6 9 -4 27 5 35 -12 28 -21 -8 -4
-16 -5 -14 -6 7 -1 25 15 41 32 31 4 -2 7 -15 7 -28z m35 24 c-4 -6 1 -16 11
-23 9 -7 14 -18 11 -23 -9 -14 -47 -24 -47 -12 0 5 10 9 23 9 l22 0 -23 18
c-18 14 -20 20 -10 30 15 15 21 16 13 1z m105 -40 c0 -22 -19 -6 -29 24 l-11
32 20 -24 c11 -13 20 -27 20 -32z m-355 11 c0 -16 -3 -30 -7 -30 -5 0 -8 14
-8 30 0 17 3 30 8 30 4 0 7 -13 7 -30z m82 -16 c-8 -8 -37 21 -37 38 0 7 9 4
22 -9 12 -13 19 -25 15 -29z m83 17 c0 -11 -4 -22 -9 -25 -5 -3 -8 6 -8 19 0
14 3 25 8 25 5 0 9 -9 9 -19z m218 -12 c-3 -43 -18 -47 -18 -5 0 20 5 36 10
36 6 0 9 -14 8 -31z m62 20 c12 -8 10 -9 -7 -4 -20 5 -23 2 -23 -19 0 -14 -4
-28 -10 -31 -13 -8 -13 21 0 46 12 22 19 23 40 8z m-560 -9 c-12 -8 -13 -13
-2 -30 16 -27 15 -35 -3 -20 -24 20 -18 60 9 60 6 0 4 -5 -4 -10z m-35 -21 c4
-11 4 -23 1 -26 -3 -4 -6 1 -6 10 0 9 -5 19 -11 23 -8 4 -9 -1 -4 -16 10 -30
-14 -44 -37 -23 -19 17 -24 33 -10 33 5 0 14 -10 20 -22 11 -23 11 -23 11 3 1
42 25 54 36 18z m94 12 c7 -5 10 -14 7 -20 -5 -8 -11 -7 -22 3 -24 24 -14 35
15 17z m548 -3 c2 6 9 12 15 12 6 0 6 -6 -2 -15 -7 -8 -10 -21 -7 -29 3 -8 0
-16 -6 -19 -7 -3 -13 3 -13 12 -1 9 -4 25 -8 36 -7 17 -6 17 4 5 9 -11 13 -12
17 -2z m34 -39 c-6 -16 -10 -18 -10 -7 -1 22 12 55 16 42 2 -6 -1 -22 -6 -35z
m-779 19 c-8 -8 -8 -17 -1 -31 8 -14 8 -18 -1 -15 -6 2 -12 8 -12 13 0 6 -4
15 -9 22 -7 8 -4 13 8 16 10 3 20 5 23 6 2 0 -1 -4 -8 -11z m844 1 c4 -7 1
-10 -7 -7 -8 3 -19 -4 -26 -16 l-12 -21 -1 21 c0 33 30 48 46 23z m-886 -13
c0 -3 -4 -8 -10 -11 -5 -3 -10 -1 -10 4 0 6 5 11 10 11 6 0 10 -2 10 -4z m770
0 c0 -3 -4 -8 -10 -11 -5 -3 -10 -1 -10 4 0 6 5 11 10 11 6 0 10 -2 10 -4z
m152 -48 c-9 -9 -12 -8 -12 6 0 10 -5 14 -11 11 -6 -4 -5 2 3 14 l13 21 9 -20
c6 -14 5 -25 -2 -32z m-927 19 c16 -5 15 -5 -4 -4 -14 1 -26 9 -28 17 -3 10
-2 11 4 4 4 -7 17 -14 28 -17z m-55 -2 c-7 -8 -8 -15 -3 -15 5 0 10 -7 10 -15
0 -22 -15 -18 -22 5 -7 22 1 40 17 40 7 0 6 -6 -2 -15z m1035 -25 c-4 -6 -12
-5 -21 5 -9 8 -12 19 -9 25 4 6 12 5 21 -5 9 -8 12 -19 9 -25z m50 10 c10 -16
-16 -43 -28 -31 -11 11 -2 41 12 41 5 0 13 -5 16 -10z m43 -25 c-3 -3 -9 2
-12 12 -6 14 -5 15 5 6 7 -7 10 -15 7 -18z m-14 -10 c4 -10 -1 -15 -15 -15
-17 0 -18 2 -7 15 16 18 15 18 22 0z"/>
<path d="M2010 2184 c0 -8 5 -12 10 -9 6 3 10 10 10 16 0 5 -4 9 -10 9 -5 0
-10 -7 -10 -16z"/>
<path d="M1351 2199 c-19 -6 -35 -18 -38 -30 -4 -13 -14 -19 -37 -20 -28 0
-29 -1 -8 -9 12 -5 22 -14 22 -20 0 -6 -8 -5 -21 2 -17 11 -22 10 -33 -4 -13
-18 -32 -26 -22 -9 3 4 -5 18 -18 30 -21 19 -24 20 -36 6 -11 -13 -10 -15 2
-10 9 4 18 0 21 -8 4 -11 0 -13 -16 -9 -22 5 -22 5 -2 -15 12 -12 23 -16 26
-10 4 5 10 -5 14 -23 5 -22 3 -35 -5 -40 -9 -6 -9 -9 1 -12 10 -3 6 -9 -10
-17 -16 -9 -21 -9 -16 -1 11 18 -4 60 -21 60 -8 0 -12 5 -9 10 4 6 11 8 16 5
5 -4 9 -1 9 4 0 14 -17 14 -25 1 -3 -5 -11 -10 -17 -10 -7 0 -6 6 2 15 8 9 9
15 2 15 -20 0 -23 -20 -7 -42 8 -13 18 -22 20 -20 3 2 11 1 18 -2 6 -3 3 -4
-7 -3 -10 1 -21 -4 -24 -12 -3 -8 0 -11 7 -7 11 7 15 -5 12 -31 -1 -7 7 -13
17 -13 22 0 66 43 55 54 -5 4 -1 6 7 4 11 -2 14 5 13 25 -2 23 1 27 14 23 22
-9 104 22 126 47 9 10 17 27 17 37 0 26 50 37 67 14 7 -10 15 -15 18 -12 4 3
-6 15 -21 27 -29 22 -59 25 -113 10z m29 -69 c0 -5 -12 -12 -27 -16 -16 -4
-39 -13 -52 -21 -17 -11 -26 -12 -34 -4 -8 8 -6 11 6 11 9 0 20 6 24 14 12 21
83 35 83 16z m-146 -76 c3 -8 2 -12 -4 -9 -6 3 -10 10 -10 16 0 14 7 11 14 -7z"/>
<path d="M1563 2194 c-16 -12 -15 -13 17 -12 20 1 45 -4 56 -10 17 -9 20 -7
21 9 1 13 -5 19 -20 20 -12 0 -30 2 -39 4 -9 2 -25 -3 -35 -11z"/>
<path d="M1676 2169 c3 -5 10 -6 16 -3 7 5 8 2 3 -5 -4 -8 -21 -11 -41 -9 -22
3 -30 0 -24 -7 4 -5 8 -14 7 -20 -1 -16 86 -56 114 -52 19 2 25 -1 22 -10 -3
-7 0 -13 6 -13 6 0 11 8 11 17 0 9 3 14 6 10 3 -3 3 -15 -1 -26 -4 -13 -11
-18 -22 -14 -10 4 -3 -11 17 -35 33 -42 54 -49 56 -21 1 9 -1 10 -3 2 -7 -19
-21 -15 -28 7 -7 23 3 79 17 98 6 6 25 12 42 11 l31 -1 -30 -13 c-16 -8 -26
-14 -21 -15 5 0 2 -8 -5 -17 -12 -14 -12 -16 0 -9 9 6 12 5 9 -5 -3 -8 -11
-13 -17 -11 -6 1 -11 -3 -11 -8 0 -5 8 -10 18 -10 11 0 27 -14 37 -34 15 -27
22 -33 35 -26 26 14 55 1 74 -32 18 -29 18 -31 -2 -51 -17 -17 -23 -18 -36 -7
-9 7 -16 17 -16 22 0 6 7 5 15 -2 23 -19 43 3 25 25 -16 19 -56 42 -46 27 3
-5 -5 -13 -19 -16 -14 -4 -25 -11 -25 -16 0 -13 17 -13 25 0 3 6 11 10 17 10
6 0 3 -9 -6 -19 -13 -14 -14 -21 -5 -26 26 -17 -5 -232 -48 -331 -9 -22 -16
-43 -14 -49 1 -5 -1 -7 -5 -3 -12 12 -33 -12 -27 -30 3 -13 2 -14 -4 -4 -11
15 -20 6 -42 -36 -11 -20 -10 -26 6 -38 10 -7 13 -14 6 -14 -6 0 -15 5 -18 10
-3 6 -24 10 -46 10 -30 0 -46 6 -59 23 -15 18 -21 20 -31 10 -7 -7 -25 -13
-39 -13 -46 0 -80 -22 -80 -52 0 -20 12 -34 51 -63 59 -42 76 -39 33 6 l-29
31 37 -22 c20 -12 47 -20 60 -18 13 2 22 -2 21 -8 -3 -13 62 -28 77 -19 6 3
10 1 10 -5 0 -7 7 -10 15 -6 8 3 15 2 15 -3 0 -12 50 -20 83 -14 21 4 25 8 15
14 -16 10 31 13 56 3 18 -7 22 -25 5 -21 -6 1 -22 -13 -37 -32 l-27 -34 25 13
c56 30 77 108 37 140 -18 15 -35 17 -97 13 -63 -5 -83 -2 -120 15 -25 12 -38
21 -29 22 9 0 18 -3 22 -6 11 -11 147 -16 147 -5 0 6 -7 11 -15 11 -8 0 -15 4
-15 9 0 5 -8 11 -17 13 -10 2 17 3 59 3 80 0 91 5 103 44 6 18 4 22 -6 16 -11
-6 -12 -5 -1 6 21 22 14 26 -35 18 -27 -4 -50 -5 -51 -4 -7 7 58 35 80 35 32
0 76 39 83 75 5 20 4 26 -3 17 -7 -11 -10 -9 -15 7 -3 15 1 21 16 23 11 2 22
9 25 17 3 10 1 11 -9 5 -8 -5 -28 -14 -46 -20 -25 -9 -30 -8 -26 2 3 7 13 16
23 19 24 8 60 65 60 95 0 37 -15 11 -19 -32 -1 -5 -5 -8 -11 -8 -6 0 -6 9 0
25 5 14 6 27 0 30 -5 3 -6 20 -3 39 3 18 1 36 -4 39 -6 4 -8 -4 -6 -17 3 -13
-1 -27 -8 -31 -9 -6 -11 -3 -6 8 3 10 2 17 -3 17 -6 0 -10 -5 -10 -11 0 -5 -4
-8 -9 -5 -5 3 -8 -9 -7 -28 1 -19 -2 -32 -6 -30 -5 3 -8 -2 -8 -10 0 -21 -16
-21 -24 0 -14 38 -6 83 21 108 36 34 35 83 -4 113 -62 49 -65 53 -53 69 14 16
5 68 -10 59 -6 -3 -10 1 -10 10 0 26 -46 37 -80 20 -27 -14 -29 -14 -35 6 -4
13 -10 17 -14 11 -4 -7 -12 -8 -20 -2 -18 11 -41 2 -41 -17 0 -8 5 -11 10 -8
6 3 10 1 10 -4 0 -16 -20 -13 -26 4 -4 8 -14 15 -24 15 -27 0 -51 11 -45 20 3
5 20 4 37 -1 25 -7 36 -5 47 6 14 13 13 15 -6 15 -12 0 -23 5 -25 12 -2 6 -12
12 -21 14 -9 1 -15 -2 -11 -7z m248 -112 c8 -13 7 -20 -4 -27 -10 -6 -17 -5
-23 5 -4 8 -16 15 -25 15 -15 1 -15 2 3 15 22 18 34 16 49 -8z m-9 -57 c3 -6
-1 -7 -9 -4 -18 7 -21 14 -7 14 6 0 13 -4 16 -10z m65 -110 c0 -5 -4 -10 -10
-10 -5 0 -10 5 -10 10 0 6 5 10 10 10 6 0 10 -4 10 -10z m25 -210 c5 -12 4
-12 -6 -3 -9 9 -16 10 -26 1 -18 -14 -24 -7 -17 19 5 19 9 20 25 10 10 -6 21
-18 24 -27z m45 20 c0 -5 -4 -10 -10 -10 -5 0 -10 5 -10 10 0 6 5 10 10 10 6
0 10 -4 10 -10z m-64 -61 c4 -8 9 -7 16 2 8 11 9 11 5 -1 -2 -8 -12 -14 -22
-12 -10 2 -14 -1 -10 -7 3 -6 -1 -14 -9 -17 -21 -8 -21 -40 0 -48 12 -5 14 -1
10 17 -3 12 -3 16 0 9 3 -6 10 -9 16 -6 6 4 14 1 18 -7 6 -9 11 -5 15 14 4 15
11 27 15 27 14 0 -1 -38 -23 -57 -11 -10 -17 -12 -13 -5 8 14 -10 17 -19 2 -4
-6 -15 -5 -30 2 -24 11 -27 37 -10 81 8 19 30 23 41 6z m64 -87 c0 -4 -10 -13
-22 -21 -23 -14 -23 -14 -4 8 20 22 26 25 26 13z m-120 -6 c0 -3 -4 -8 -10
-11 -5 -3 -10 -1 -10 4 0 6 5 11 10 11 6 0 10 -2 10 -4z m9 -39 c-2 -1 -12 -9
-22 -16 -15 -12 -17 -12 -11 3 3 9 13 16 22 16 8 0 13 -1 11 -3z m-11 -58 l27
-1 -28 -8 c-16 -5 -34 -7 -42 -4 -7 3 -20 -2 -29 -11 -9 -9 -21 -15 -27 -13
-6 2 7 15 28 29 21 13 40 21 41 17 2 -4 16 -8 30 -9z m-265 -45 c7 -7 -14 -44
-25 -44 -5 0 -8 8 -8 18 0 27 18 41 33 26z m270 -1 c-7 -2 -21 -2 -30 0 -10 3
-4 5 12 5 17 0 24 -2 18 -5z m-329 -48 c8 -8 30 -15 50 -15 19 0 57 -9 83 -19
35 -14 69 -18 123 -17 81 3 120 -8 120 -33 0 -12 -2 -13 -8 -4 -6 9 -37 12
-103 11 -73 -1 -103 3 -134 17 -44 20 -54 23 -105 32 -44 7 -72 21 -65 34 9
13 21 11 39 -6z"/>
<path d="M1091 2104 c-23 -29 -27 -49 -11 -59 18 -11 11 -47 -10 -52 -28 -7
-25 -23 4 -23 14 0 28 -5 32 -12 5 -8 2 -9 -9 -5 -9 3 -19 1 -23 -5 -4 -7 -3
-8 4 -4 8 4 12 0 12 -11 0 -14 2 -15 9 -4 5 7 14 10 20 7 6 -4 11 -1 12 6 0 7
7 0 14 -17 12 -25 14 -26 15 -9 0 11 -9 29 -20 39 -13 11 -18 25 -14 37 3 10
0 18 -7 18 -9 0 -8 4 1 15 10 12 10 15 -3 15 -22 0 -29 41 -10 62 9 10 14 21
11 24 -3 3 -15 -7 -27 -22z"/>
<path d="M1460 2081 c0 -28 19 -36 38 -17 14 13 14 18 3 28 -11 11 -13 10 -8
-4 3 -10 2 -20 -3 -23 -6 -4 -10 3 -10 14 0 12 -4 21 -10 21 -5 0 -10 -9 -10
-19z"/>
<path d="M1417 2071 c-3 -14 1 -18 19 -18 20 0 21 2 11 18 -7 11 -15 19 -18
19 -4 0 -9 -8 -12 -19z"/>
<path d="M1560 2083 c0 -14 19 -38 25 -32 8 8 -5 39 -16 39 -5 0 -9 -3 -9 -7z"/>
<path d="M1387 2060 c3 -11 7 -20 9 -20 2 0 4 9 4 20 0 11 -4 20 -9 20 -5 0
-7 -9 -4 -20z"/>
<path d="M1607 2073 c-4 -3 -7 -12 -7 -20 0 -18 36 -17 44 2 3 8 1 15 -4 15
-6 0 -10 -4 -10 -10 0 -5 -4 -10 -10 -10 -5 0 -7 7 -4 15 6 16 2 20 -9 8z"/>
<path d="M1360 2049 c7 -11 14 -19 16 -16 7 7 -7 37 -17 37 -6 0 -5 -9 1 -21z"/>
<path d="M1545 2060 c-3 -5 -1 -10 4 -10 6 0 11 5 11 10 0 6 -2 10 -4 10 -3 0
-8 -4 -11 -10z"/>
<path d="M1335 2044 c5 -19 2 -21 -21 -16 -19 3 -25 1 -20 -7 4 -6 13 -8 19
-5 9 5 9 3 0 -6 -10 -11 -15 -11 -28 0 -15 12 -17 10 -19 -22 -1 -10 -5 -17
-11 -15 -5 1 -9 6 -7 12 2 5 -6 1 -18 -10 -11 -10 -18 -25 -16 -32 3 -7 -2
-13 -12 -14 -14 0 -14 -2 3 -8 26 -11 39 -3 24 15 -6 8 -9 18 -5 21 4 4 11 1
17 -7 6 -10 11 -12 17 -4 4 6 28 27 54 46 43 33 46 37 32 54 -14 18 -15 18 -9
-2z"/>
<path d="M1656 2044 c-4 -9 -3 -20 0 -23 4 -3 9 0 11 7 3 6 9 12 14 12 4 0 6
-6 3 -13 -2 -7 7 -23 21 -35 14 -12 25 -19 25 -15 0 4 7 -2 15 -13 14 -18 14
-17 15 16 0 26 -3 31 -12 22 -17 -17 -27 -15 -23 6 1 9 0 11 -2 5 -7 -20 -26
-15 -21 5 3 11 -2 23 -13 30 -24 15 -26 15 -33 -4z"/>
<path d="M1423 2030 c-17 -4 -51 -19 -76 -33 -131 -77 -190 -239 -138 -378 25
-67 97 -139 168 -171 59 -26 171 -30 198 -8 11 9 16 10 11 3 -4 -7 -3 -13 3
-13 5 0 13 5 16 10 4 6 11 8 17 4 5 -3 34 11 64 31 64 45 108 111 130 198 14
58 14 68 -1 126 -9 35 -27 80 -40 101 -66 105 -219 162 -352 130z m69 -40
c-11 -11 -21 -14 -28 -8 -8 5 -14 3 -18 -7 -6 -17 -34 -19 -56 -4 -11 8 -7 9
20 6 19 -3 29 -3 23 0 -24 9 -13 20 17 18 17 -1 30 1 30 5 0 4 7 7 15 7 12 0
12 -3 -3 -17z m41 5 c-3 -9 -8 -14 -10 -11 -3 3 -2 9 2 15 9 16 15 13 8 -4z
m32 -5 c-10 -11 -20 -18 -23 -15 -7 6 18 35 31 35 5 0 2 -9 -8 -20z m55 5 c0
-2 -15 -12 -32 -20 l-33 -16 24 21 c22 19 41 26 41 15z m-81 -45 c6 0 11 -4
11 -10 0 -5 -5 -10 -11 -10 -6 0 -8 -7 -5 -16 5 -12 2 -15 -12 -12 -11 3 -27
1 -37 -5 -15 -8 -17 -7 -11 8 3 10 1 24 -5 31 -9 11 -7 14 10 14 13 0 21 6 21
18 1 16 1 16 14 0 7 -10 18 -18 25 -18z m121 21 c0 -9 -71 -24 -78 -16 -2 2
11 8 29 14 45 12 49 13 49 2z m-223 -34 c3 -4 -22 -7 -56 -7 -35 0 -60 4 -57
9 7 10 102 8 113 -2z m218 -6 l40 -9 -40 0 c-22 0 -49 3 -60 8 l-20 9 20 0
c11 0 38 -4 60 -8z m-202 -12 c-6 -6 -37 -17 -70 -24 -32 -7 -66 -16 -75 -20
-10 -4 -18 -3 -18 3 0 7 102 38 170 51 2 1 -1 -4 -7 -10z m202 -26 c92 -32 90
-31 83 -39 -7 -6 -158 44 -172 57 -16 15 4 11 89 -18z m-210 -3 c-8 -13 -125
-69 -125 -60 0 5 114 67 128 70 2 0 0 -5 -3 -10z m56 -63 c-13 -13 -15 21 -3
50 6 15 8 13 10 -11 2 -16 -1 -33 -7 -39z m135 20 c56 -43 46 -49 -12 -8 -25
18 -47 31 -50 29 -2 -3 14 -31 36 -63 21 -33 37 -62 33 -65 -3 -3 -7 0 -10 5
-2 6 -22 35 -44 65 -22 30 -36 56 -30 58 6 2 8 9 4 15 -11 18 28 -1 73 -36z
m-172 -14 c-15 -27 -28 -49 -29 -51 -1 -2 -5 4 -9 13 -3 9 -2 14 3 11 7 -5 31
35 31 52 0 3 -23 -16 -51 -43 -28 -28 -47 -41 -41 -30 16 32 79 88 90 81 6 -3
13 -2 17 4 3 5 9 10 12 10 2 0 -7 -21 -23 -47z m79 20 c2 -10 8 -26 12 -35 4
-10 3 -18 -3 -18 -8 0 -32 50 -32 66 0 12 19 1 23 -13z m10 -107 c9 -13 19
-36 23 -51 4 -15 12 -29 19 -31 20 -8 41 -82 26 -97 -9 -9 -16 -9 -31 1 -25
15 -131 16 -164 1 -20 -9 -29 -9 -40 1 -13 10 -10 23 30 98 67 127 95 143 137
78z m-223 -30 c0 -3 -4 -8 -10 -11 -5 -3 -10 -1 -10 4 0 6 5 11 10 11 6 0 10
-2 10 -4z m330 -6 c0 -5 -4 -10 -10 -10 -5 0 -10 5 -10 10 0 6 5 10 10 10 6 0
10 -4 10 -10z m-375 -10 c3 -5 1 -10 -4 -10 -6 0 -11 5 -11 10 0 6 2 10 4 10
3 0 8 -4 11 -10z m370 -39 c-3 -6 -11 -11 -17 -11 -6 0 -6 6 2 15 14 17 26 13
15 -4z m-352 -95 c8 -21 -3 -27 -19 -11 -18 17 -18 25 0 25 8 0 16 -6 19 -14z
m432 -5 c-3 -6 -14 -11 -23 -11 -15 1 -15 2 2 15 21 16 32 13 21 -4z m-405
-15 c0 -2 -8 -10 -17 -17 -16 -13 -17 -12 -4 4 13 16 21 21 21 13z m377 -26
c-2 -11 -10 -26 -17 -33 -12 -10 -12 -9 -1 6 17 21 3 22 -27 1 -13 -9 -19 -20
-15 -27 4 -7 0 -6 -10 2 -14 11 -17 11 -17 0 0 -9 -3 -10 -11 -2 -13 13 -2 36
14 30 6 -2 22 7 35 20 29 29 53 30 49 3z m-337 -26 c0 -8 -5 -12 -10 -9 -6 4
-7 11 -4 17 5 7 -2 9 -20 6 -21 -4 -24 -3 -15 8 14 17 49 1 49 -22z m30 -15
c0 -8 5 -8 15 1 16 13 18 10 9 -14 -5 -12 -9 -13 -25 -3 -20 13 -25 27 -9 27
6 0 10 -5 10 -11z m60 -14 c0 -8 -7 -15 -15 -15 -26 0 -18 20 13 29 1 1 2 -6
2 -14z m130 5 c0 -5 -4 -10 -10 -10 -5 0 -10 5 -10 10 0 6 5 10 10 10 6 0 10
-4 10 -10z m-82 -7 c-10 -2 -18 -9 -18 -14 0 -6 -4 -7 -10 -4 -19 12 -10 25
18 24 16 -1 20 -3 10 -6z m47 -3 c3 -5 2 -10 -4 -10 -5 0 -13 5 -16 10 -3 6
-2 10 4 10 5 0 13 -4 16 -10z"/>
<path d="M1415 1616 c-22 -23 -23 -32 -4 -33 10 -1 19 2 19 6 0 4 26 5 59 3
35 -3 67 1 81 8 20 11 22 10 17 -4 -5 -11 -1 -16 14 -16 16 0 18 3 9 19 -9 18
-18 19 -78 14 -39 -3 -77 -1 -88 5 -13 7 -22 6 -29 -2z"/>
<path d="M1013 1968 c-25 -32 -23 -65 5 -101 21 -26 29 -48 31 -83 1 -27 6
-50 12 -52 5 -2 9 -8 9 -13 0 -6 -4 -8 -9 -4 -5 3 -11 -3 -14 -12 -3 -15 -6
-14 -14 7 -6 14 -14 25 -19 25 -5 0 -8 19 -6 43 4 40 -2 48 -32 43 -5 -1 -6 5
-3 13 4 9 3 18 -2 20 -8 5 -11 -9 -12 -51 -1 -13 -5 -23 -10 -23 -5 0 -7 -10
-5 -22 3 -13 5 -27 5 -31 1 -5 5 -6 11 -2 5 3 7 13 4 23 -5 15 -4 15 6 -1 15
-24 -10 -52 -31 -34 -8 7 -3 0 9 -14 15 -17 20 -29 13 -34 -6 -3 -11 -13 -11
-22 0 -12 3 -13 15 -3 20 17 30 7 33 -32 l2 -33 -20 24 c-27 31 -26 11 1 -23
11 -14 17 -26 13 -26 -10 0 -54 49 -54 61 0 5 -4 9 -10 9 -5 0 -1 -15 8 -32
21 -38 59 -59 110 -62 19 0 37 -6 39 -12 2 -7 -6 -10 -22 -7 -15 3 -25 1 -25
-6 0 -6 8 -11 18 -11 10 0 27 -7 38 -16 18 -14 18 -15 -4 -4 -12 6 -27 8 -34
4 -6 -4 -19 4 -30 17 -16 20 -18 20 -9 3 15 -32 36 -45 74 -47 43 -2 38 -14
-10 -23 -28 -5 -32 -9 -20 -16 11 -5 29 -3 53 7 37 15 37 15 19 -5 -10 -11
-13 -20 -7 -20 7 0 12 5 12 10 0 6 11 10 25 10 15 0 25 6 25 14 0 8 7 17 16
20 13 5 11 12 -15 41 -17 20 -31 45 -31 55 0 11 -4 20 -10 20 -5 0 -7 -7 -4
-15 5 -11 2 -13 -9 -9 -9 3 -14 11 -11 18 2 6 -4 37 -15 69 -11 32 -23 85 -27
120 -6 49 -9 57 -15 37 -5 -18 -7 -9 -7 30 0 45 2 50 8 25 l8 -30 1 30 c2 38
21 72 21 38 0 -16 6 -23 20 -23 20 0 20 0 -2 30 -12 17 -28 30 -35 30 -8 0
-12 4 -9 9 3 5 -1 11 -9 15 -8 3 -15 1 -15 -5 0 -6 -7 -8 -16 -5 -11 4 -14 1
-12 -12 3 -11 12 -16 26 -15 26 3 29 -12 5 -21 -11 -5 -22 -1 -30 10 -17 24
-16 45 3 72 16 23 4 32 -13 10z m-13 -172 c0 -8 -7 -16 -15 -20 -13 -4 -14 -2
-5 14 13 23 20 26 20 6z m75 -125 c-4 -18 0 -44 10 -67 9 -22 18 -48 20 -59 4
-20 4 -20 -11 0 -8 11 -19 38 -25 60 -6 22 -16 46 -21 53 -10 11 -4 16 15 13
4 0 7 6 7 14 0 8 3 15 6 15 3 0 3 -13 -1 -29z m-25 -35 c0 -5 -7 -3 -15 4 -8
7 -15 20 -15 28 0 13 3 12 15 -4 8 -10 15 -23 15 -28z m10 -20 c0 -3 -4 -8
-10 -11 -5 -3 -10 -1 -10 4 0 6 5 11 10 11 6 0 10 -2 10 -4z m8 -51 c-3 -3 -9
2 -12 12 -6 14 -5 15 5 6 7 -7 10 -15 7 -18z m62 -65 c0 -5 -2 -10 -4 -10 -3
0 -8 5 -11 10 -3 6 -1 10 4 10 6 0 11 -4 11 -10z m50 -40 c0 -5 -2 -10 -4 -10
-3 0 -8 5 -11 10 -3 6 -1 10 4 10 6 0 11 -4 11 -10z m0 -32 c0 -12 -6 -9 -26
13 -19 22 -19 22 4 8 12 -8 22 -17 22 -21z"/>
<path d="M1772 1976 c4 -5 3 -15 -3 -23 -9 -10 -8 -18 4 -31 18 -19 52 -93 49
-104 -3 -13 15 -9 27 6 9 11 7 15 -11 20 -14 5 -18 9 -10 13 19 8 14 26 -5 18
-15 -5 -16 -4 -5 6 17 18 15 40 -2 33 -10 -4 -13 0 -10 13 3 12 -4 26 -18 38
-13 11 -20 16 -16 11z m28 -35 c0 -6 -4 -13 -10 -16 -5 -3 -10 1 -10 9 0 9 5
16 10 16 6 0 10 -4 10 -9z"/>
<path d="M1867 1946 c-4 -10 -5 -21 -2 -24 9 -9 17 6 13 25 -3 17 -4 17 -11
-1z"/>
<path d="M1171 1878 c-9 -24 -8 -34 1 -40 9 -5 7 -8 -7 -9 -11 0 -14 -3 -7 -6
6 -2 12 -9 12 -14 0 -6 -4 -8 -9 -4 -5 3 -12 1 -15 -4 -3 -5 3 -11 14 -14 11
-3 21 -2 21 1 1 4 3 19 5 35 1 15 10 34 18 43 20 20 20 30 0 38 -22 8 -21 9
-33 -26z m29 8 c0 -3 -4 -8 -10 -11 -5 -3 -10 -1 -10 4 0 6 5 11 10 11 6 0 10
-2 10 -4z"/>
<path d="M1854 1885 c8 -32 37 -58 50 -45 4 4 3 16 -3 27 -10 17 -10 17 -11
-2 -1 -20 -1 -20 -15 -1 -8 10 -12 22 -10 27 3 4 0 11 -6 15 -9 5 -10 -1 -5
-21z"/>
<path d="M1197 1524 c-9 -10 61 -91 83 -97 24 -6 27 15 5 33 -8 7 -15 19 -15
26 0 8 -8 14 -17 14 -9 0 -24 7 -33 15 -9 8 -19 12 -23 9z"/>
<path d="M1230 1520 c0 -5 5 -10 11 -10 5 0 7 5 4 10 -3 6 -8 10 -11 10 -2 0
-4 -4 -4 -10z"/>
<path d="M1772 1502 c11 -13 10 -14 -2 -10 -10 3 -19 -5 -27 -24 -7 -15 -20
-28 -30 -28 -12 0 -14 -3 -6 -11 14 -14 43 1 77 42 32 38 33 47 1 47 -22 0
-24 -3 -13 -16z"/>
<path d="M1214 1434 c-10 -24 -36 -44 -49 -37 -5 3 -4 0 3 -8 20 -22 15 -26
-40 -32 -57 -7 -98 -39 -98 -77 0 -11 -9 -24 -21 -30 -12 -7 -18 -18 -15 -26
3 -8 -4 -18 -15 -25 -11 -6 -18 -13 -16 -16 3 -2 18 3 33 13 15 10 33 19 41
20 19 3 44 25 39 33 -3 4 10 8 27 9 18 1 45 5 60 8 16 3 57 0 92 -7 50 -10 70
-10 90 -1 14 7 23 17 20 22 -4 6 1 7 12 3 14 -4 15 -3 7 6 -8 8 -23 9 -53 2
-33 -7 -45 -6 -56 6 -8 8 -15 10 -15 4 0 -6 -12 -6 -32 2 -36 14 -55 14 -109
4 -41 -8 -59 -25 -62 -56 -1 -11 -3 -18 -5 -16 -2 2 -16 -1 -31 -6 l-26 -9 22
18 c12 11 28 35 36 54 11 26 23 38 44 42 29 7 148 0 162 -8 8 -5 59 -17 76
-18 6 0 23 3 38 7 27 7 28 6 22 -25 -3 -19 -8 -37 -11 -42 -9 -14 3 -9 71 28
57 32 64 38 54 55 -5 11 -7 24 -4 29 9 14 -42 43 -67 37 -11 -3 -33 0 -48 8
-27 14 -28 14 -16 -10 6 -13 20 -26 31 -29 29 -8 16 -14 -40 -20 -28 -3 -44
-3 -37 0 6 3 10 10 7 15 -4 5 0 6 8 3 8 -3 17 2 20 10 6 15 0 16 -71 16 -26 0
-36 6 -52 32 -17 29 -20 30 -26 12z m266 -68 c0 -2 -11 -1 -25 2 -14 2 -22 8
-19 13 4 8 44 -6 44 -15z m-256 -1 c-7 -16 -24 -21 -24 -6 0 8 7 13 27 20 1 1
0 -6 -3 -14z m39 -11 c-2 -7 -11 -10 -19 -7 -17 6 -11 20 10 20 8 0 12 -6 9
-13z m202 -4 c3 -5 2 -10 -4 -10 -5 0 -13 5 -16 10 -3 6 -2 10 4 10 5 0 13 -4
16 -10z m0 -30 c-3 -5 -16 -10 -28 -10 -18 0 -19 2 -7 10 20 13 43 13 35 0z
m-262 -37 c-7 -2 -19 -2 -25 0 -7 3 -2 5 12 5 14 0 19 -2 13 -5z"/>
<path d="M1563 1232 c-1 -26 1 -32 7 -22 12 18 13 47 3 53 -5 3 -9 -11 -10
-31z"/>
<path d="M1199 1033 c-1 -4 0 -22 1 -40 1 -31 0 -32 -32 -27 -60 10 -94 -60
-52 -107 14 -15 27 -19 58 -15 23 2 45 5 49 5 14 2 4 184 -10 189 -7 2 -13 0
-14 -5z m-10 -107 c9 -11 10 -20 1 -35 -13 -25 -45 -27 -59 -4 -21 38 31 72
58 39z"/>
<path d="M1490 1000 c0 -38 -1 -39 -29 -34 -58 12 -94 -63 -51 -106 15 -15 30
-19 62 -16 l43 4 3 96 c2 81 0 96 -13 96 -11 0 -15 -11 -15 -40z m-5 -81 c14
-43 -45 -66 -61 -24 -8 19 13 45 37 45 10 0 21 -10 24 -21z"/>
<path d="M160 950 c0 -57 4 -74 20 -90 24 -24 67 -26 98 -4 19 13 22 24 22 90
0 59 -3 74 -15 74 -12 0 -15 -14 -15 -63 0 -65 -11 -87 -42 -87 -25 0 -38 31
-38 94 0 43 -3 56 -15 56 -12 0 -15 -14 -15 -70z"/>
<path d="M480 1005 c0 -8 9 -15 20 -15 11 0 20 7 20 15 0 8 -9 15 -20 15 -11
0 -20 -7 -20 -15z"/>
<path d="M1032 1008 c7 -19 38 -22 38 -4 0 10 -9 16 -21 16 -12 0 -19 -5 -17
-12z"/>
<path d="M1652 938 c-32 -68 -36 -84 -23 -87 8 -2 22 6 29 18 19 28 82 30 89
2 5 -18 43 -37 43 -22 0 24 -71 167 -84 169 -11 2 -27 -22 -54 -80z m71 -20
c-6 -11 -43 -10 -43 1 0 5 5 22 11 38 l11 28 12 -30 c7 -16 11 -33 9 -37z"/>
<path d="M2115 1009 c-12 -19 3 -22 27 -5 l22 16 -21 0 c-12 0 -25 -5 -28 -11z"/>
<path d="M1970 986 c0 -8 -7 -16 -15 -20 -19 -7 -20 -26 -1 -26 11 0 16 -14
18 -47 3 -44 5 -48 31 -51 19 -2 27 1 27 12 0 9 -7 16 -15 16 -10 0 -15 11
-15 35 0 24 5 35 15 35 8 0 15 7 15 15 0 8 -7 15 -15 15 -8 0 -15 7 -15 15 0
8 -7 15 -15 15 -8 0 -15 -6 -15 -14z"/>
<path d="M340 908 c0 -44 4 -58 14 -58 10 0 16 14 18 43 2 34 7 42 23 42 17 0
20 -8 23 -47 2 -36 6 -46 18 -41 18 7 19 96 2 111 -7 5 -32 9 -55 9 l-43 -2 0
-57z"/>
<path d="M487 964 c-4 -4 -7 -31 -7 -60 0 -37 4 -53 15 -58 21 -8 27 11 23 69
-3 45 -15 64 -31 49z"/>
<path d="M544 947 c27 -110 62 -125 96 -42 13 31 20 58 17 62 -11 10 -35 -17
-42 -48 -8 -36 -21 -37 -30 -2 -8 32 -23 53 -37 53 -6 0 -8 -10 -4 -23z"/>
<path d="M695 945 c-14 -13 -25 -31 -25 -40 0 -22 45 -65 68 -65 20 0 63 28
47 31 -5 1 -23 2 -39 3 -47 2 -41 22 6 21 50 0 62 21 29 54 -28 28 -56 26 -86
-4z m52 -23 c-34 -4 -48 5 -27 18 8 5 22 4 34 -3 20 -11 20 -12 -7 -15z"/>
<path d="M829 966 c0 -1 -1 -27 -2 -58 -1 -36 2 -59 10 -62 17 -7 23 4 23 47
0 30 4 40 20 44 34 9 23 31 -15 30 -19 -1 -35 -1 -36 -1z"/>
<path d="M932 958 c-22 -22 -14 -49 18 -61 37 -14 39 -30 3 -25 -34 4 -42 -19
-10 -27 60 -15 93 47 37 68 -33 12 -42 32 -11 24 10 -2 25 -1 32 4 12 8 11 11
-1 19 -21 13 -54 12 -68 -2z"/>
<path d="M1040 911 c0 -48 3 -61 15 -61 13 0 15 11 13 57 -4 81 -28 85 -28 4z"/>
<path d="M1273 963 c-25 -10 -12 -24 19 -21 18 2 33 -2 35 -9 3 -8 -5 -13 -20
-13 -28 0 -57 -23 -57 -45 0 -21 31 -34 73 -32 l37 2 0 51 c0 27 -5 55 -12 62
-12 12 -52 15 -75 5z m57 -78 c0 -9 -9 -15 -25 -15 -26 0 -34 15 -12 23 23 10
37 7 37 -8z"/>
<path d="M1817 963 c-4 -3 -7 -26 -7 -49 0 -50 22 -78 54 -70 12 3 29 6 39 6
14 0 17 10 17 60 0 46 -3 60 -14 60 -11 0 -16 -14 -18 -47 -3 -40 -6 -48 -23
-48 -17 0 -20 8 -23 48 -3 44 -10 56 -25 40z"/>
<path d="M2072 954 c-30 -21 -30 -77 0 -98 31 -22 64 -20 88 4 58 58 -20 142
-88 94z m69 -30 c17 -21 0 -49 -32 -49 -24 0 -36 23 -25 51 7 19 40 18 57 -2z"/>
<path d="M2210 903 c0 -50 3 -61 14 -57 9 3 16 23 18 47 2 34 7 42 23 42 17 0
20 -8 23 -47 2 -36 6 -46 18 -41 17 6 19 74 4 103 -8 15 -20 19 -55 18 l-45
-2 0 -63z"/>
<path d="M2372 954 c-30 -21 -30 -77 0 -98 30 -21 50 -20 82 5 32 25 33 59 3
87 -27 26 -54 28 -85 6z m69 -30 c17 -21 0 -49 -32 -49 -24 0 -36 23 -25 51 7
19 40 18 57 -2z"/>
<path d="M2506 960 c-6 -12 0 -110 7 -110 4 0 11 0 16 0 6 0 11 19 13 42 2 31
8 44 21 46 14 3 17 -4 17 -42 0 -38 3 -46 18 -46 14 0 17 7 15 33 -4 39 9 62
31 54 11 -4 16 -19 16 -47 0 -29 4 -40 16 -40 12 0 14 10 12 51 -4 61 -24 82
-59 61 -13 -9 -25 -10 -32 -3 -12 10 -86 11 -91 1z"/>
<path d="M2743 963 c-22 -8 -14 -26 8 -20 24 6 49 -1 49 -14 0 -5 -9 -9 -21
-9 -31 0 -59 -18 -59 -39 0 -28 22 -41 66 -37 39 4 39 4 42 49 4 63 -31 92
-85 70z m57 -73 c0 -15 -38 -32 -45 -20 -3 5 -3 15 0 20 8 13 45 13 45 0z"/>
<path d="M320 695 c0 -33 -1 -34 -29 -29 -54 11 -91 -55 -57 -101 11 -15 27
-20 65 -21 l51 -1 0 94 c0 76 -3 93 -15 93 -10 0 -15 -11 -15 -35z m-5 -90 c0
-25 -4 -30 -24 -30 -32 0 -49 28 -31 50 7 9 23 15 34 13 16 -2 21 -10 21 -33z"/>
<path d="M530 635 c0 -78 3 -95 15 -95 12 0 15 17 15 95 0 78 -3 95 -15 95
-12 0 -15 -17 -15 -95z"/>
<path d="M1262 696 c4 -34 3 -35 -30 -33 -27 2 -39 -4 -55 -25 -18 -24 -18
-30 -7 -57 13 -33 34 -42 90 -38 l35 3 3 92 c3 88 2 92 -19 92 -18 0 -21 -5
-17 -34z m-2 -77 c14 -26 -4 -51 -34 -47 -21 3 -32 28 -22 54 8 21 44 17 56
-7z"/>
<path d="M1650 695 c0 -33 -1 -34 -29 -29 -54 11 -91 -55 -57 -101 11 -15 27
-20 65 -21 l51 -1 0 94 c0 76 -3 93 -15 93 -10 0 -15 -11 -15 -35z m-5 -90 c0
-25 -4 -30 -24 -30 -32 0 -49 28 -31 50 7 9 23 15 34 13 16 -2 21 -10 21 -33z"/>
<path d="M672 633 l3 -88 63 -3 c51 -2 62 0 62 13 0 11 -11 15 -45 15 -41 0
-45 2 -45 25 0 23 4 25 40 25 29 0 40 4 40 15 0 11 -11 15 -40 15 -33 0 -40 3
-40 20 0 17 7 20 40 20 29 0 40 4 40 15 0 12 -13 15 -60 15 l-61 0 3 -87z"/>
<path d="M1940 631 c0 -73 3 -91 15 -91 11 0 15 16 17 68 l3 67 25 -64 c14
-36 30 -66 37 -68 6 -2 21 25 35 64 l23 68 3 -67 c2 -52 6 -68 17 -68 12 0 15
18 15 90 0 88 -1 90 -24 90 -19 0 -27 -9 -41 -47 -10 -27 -21 -52 -25 -56 -4
-5 -17 15 -28 45 -16 43 -24 54 -46 56 l-26 3 0 -90z"/>
<path d="M2226 704 c-10 -25 -1 -27 25 -5 24 20 24 20 3 21 -12 0 -25 -7 -28
-16z"/>
<path d="M2450 705 c0 -10 7 -15 18 -13 21 4 19 22 -2 26 -10 2 -16 -3 -16
-13z"/>
<path d="M950 685 c0 -9 -7 -18 -15 -21 -19 -8 -20 -24 -1 -24 11 0 16 -14 18
-47 3 -44 5 -48 31 -51 19 -2 27 1 27 12 0 9 -7 16 -15 16 -10 0 -15 11 -15
35 0 24 5 35 15 35 8 0 15 7 15 15 0 9 -6 12 -15 9 -10 -4 -15 0 -15 15 0 12
-6 21 -15 21 -8 0 -15 -7 -15 -15z"/>
<path d="M412 658 c-46 -23 -37 -101 13 -114 29 -7 79 11 70 25 -3 5 -20 7
-39 4 -19 -3 -36 -1 -40 6 -5 7 8 11 38 11 42 0 46 2 46 24 0 14 -10 32 -22
40 -26 18 -34 19 -66 4z m58 -28 c0 -5 -14 -10 -31 -10 -17 0 -28 4 -24 10 3
6 17 10 31 10 13 0 24 -4 24 -10z"/>
<path d="M838 659 c-29 -16 -22 -49 12 -62 17 -6 30 -15 30 -19 0 -14 -21 -19
-35 -8 -15 12 -31 -3 -20 -20 7 -12 55 -13 72 -2 25 16 19 47 -14 62 -38 18
-44 35 -9 26 28 -7 46 12 25 25 -18 11 -40 11 -61 -2z"/>
<path d="M1057 663 c-30 -8 -13 -28 21 -25 18 2 32 -1 32 -7 0 -6 -9 -11 -21
-11 -31 0 -59 -18 -59 -39 0 -28 20 -39 68 -38 l42 2 0 47 c0 66 -24 86 -83
71z m53 -72 c0 -5 -7 -14 -15 -21 -12 -10 -19 -10 -28 -1 -9 9 -9 14 3 21 19
12 40 13 40 1z"/>
<path d="M1345 645 c-30 -29 -31 -45 -4 -79 13 -17 30 -26 49 -26 29 0 70 39
70 67 0 21 -46 63 -70 63 -11 0 -32 -11 -45 -25z m74 -22 c12 -23 -4 -53 -29
-53 -25 0 -41 29 -29 52 12 23 45 23 58 1z"/>
<path d="M1742 658 c-46 -23 -37 -101 13 -114 29 -7 79 11 70 25 -3 5 -20 7
-39 4 -19 -3 -36 -1 -40 6 -5 7 8 11 38 11 42 0 46 2 46 23 0 26 -28 57 -51
56 -8 0 -24 -5 -37 -11z m58 -28 c0 -5 -14 -10 -31 -10 -17 0 -28 4 -24 10 3
6 17 10 31 10 13 0 24 -4 24 -10z"/>
<path d="M2185 645 c-30 -29 -31 -45 -4 -79 22 -28 48 -33 80 -15 29 15 14 28
-26 22 -22 -3 -35 -2 -35 5 0 6 19 12 43 14 38 3 42 5 39 28 -5 51 -58 65 -97
25z m70 -15 c4 -6 -7 -10 -24 -10 -17 0 -31 5 -31 10 0 6 11 10 24 10 14 0 28
-4 31 -10z"/>
<path d="M2310 664 c0 -2 7 -16 16 -30 16 -24 16 -27 -5 -54 -11 -16 -21 -32
-21 -35 0 -13 28 -3 45 15 l18 20 22 -20 c20 -19 45 -27 45 -15 0 3 -10 19
-21 35 -21 27 -21 30 -5 54 9 14 16 28 16 31 0 12 -21 4 -39 -16 -16 -17 -21
-18 -28 -7 -8 14 -43 32 -43 22z"/>
<path d="M2456 663 c-3 -3 -6 -33 -6 -65 0 -45 3 -58 15 -58 12 0 15 13 15 59
0 56 -9 79 -24 64z"/>
<path d="M2530 650 c-52 -52 16 -140 79 -101 11 7 11 10 0 17 -8 5 -24 7 -36
6 -14 -2 -23 4 -28 18 -9 29 13 53 41 46 29 -8 40 10 15 23 -29 16 -49 13 -71
-9z"/>
<path d="M2662 658 c-47 -23 -37 -101 14 -114 43 -11 78 14 82 58 2 28 -2 40
-20 52 -26 18 -44 19 -76 4z m56 -27 c8 -4 12 -19 10 -32 -4 -29 -45 -34 -61
-7 -19 30 19 60 51 39z"/>
</g>
</svg>
